<svg xmlns="http://www.w3.org/2000/svg" xmlns:xlink="http://www.w3.org/1999/xlink" width="1500" zoomAndPan="magnify" viewBox="0 0 1125 374.999991" height="500" preserveAspectRatio="xMidYMid meet" version="1.0"><defs><g/><clipPath id="56b1a5701b"><rect x="0" width="1017" y="0" height="296"/></clipPath></defs><g transform="matrix(1, 0, 0, 1, 54, 39)"><g clip-path="url(#56b1a5701b)"><g fill="#e89926" fill-opacity="1"><g transform="translate(0.632354, 236.555793)"><g><path d="M 14.03125 -83.921875 C 14.03125 -91.660156 15.117188 -98.710938 17.296875 -105.078125 C 19.472656 -111.453125 22.578125 -116.894531 26.609375 -121.40625 C 30.640625 -125.914062 35.472656 -129.378906 41.109375 -131.796875 C 46.753906 -134.222656 53.046875 -135.4375 59.984375 -135.4375 C 69.972656 -135.4375 78.191406 -133.054688 84.640625 -128.296875 C 91.085938 -123.535156 95.117188 -117.046875 96.734375 -108.828125 L 98.4375 -108.828125 L 98.4375 -133.015625 L 127.453125 -133.015625 L 127.453125 -8.21875 C 127.453125 -0.800781 126.160156 5.847656 123.578125 11.734375 C 121.003906 17.617188 117.296875 22.65625 112.453125 26.84375 C 107.617188 31.03125 101.773438 34.253906 94.921875 36.515625 C 88.066406 38.773438 80.445312 39.90625 72.0625 39.90625 L 36.515625 39.90625 L 36.515625 14.75 L 72.0625 14.75 C 79.800781 14.75 85.925781 12.734375 90.4375 8.703125 C 94.957031 4.671875 97.21875 -0.96875 97.21875 -8.21875 L 97.21875 -10.890625 L 98.1875 -37.484375 L 96.734375 -37.484375 C 95.117188 -29.265625 91.046875 -22.773438 84.515625 -18.015625 C 77.992188 -13.265625 69.816406 -10.890625 59.984375 -10.890625 C 53.046875 -10.890625 46.753906 -12.097656 41.109375 -14.515625 C 35.472656 -16.929688 30.640625 -20.394531 26.609375 -24.90625 C 22.578125 -29.425781 19.472656 -34.867188 17.296875 -41.234375 C 15.117188 -47.597656 14.03125 -54.648438 14.03125 -62.390625 Z M 44.5 -63.125 C 44.5 -54.894531 46.835938 -48.484375 51.515625 -43.890625 C 56.191406 -39.296875 62.640625 -37 70.859375 -37 C 78.921875 -37 85.328125 -39.335938 90.078125 -44.015625 C 94.835938 -48.691406 97.21875 -55.0625 97.21875 -63.125 L 97.21875 -83.1875 C 97.21875 -91.25 94.835938 -97.617188 90.078125 -102.296875 C 85.328125 -106.972656 78.921875 -109.3125 70.859375 -109.3125 C 62.640625 -109.3125 56.191406 -106.972656 51.515625 -102.296875 C 46.835938 -97.617188 44.5 -91.25 44.5 -83.1875 Z M 44.5 -63.125 "/></g></g></g><g fill="#e89926" fill-opacity="1"><g transform="translate(145.734374, 236.555793)"><g><path d="M 22.96875 -133.015625 L 51.515625 -133.015625 L 51.515625 -110.03125 L 53.6875 -110.03125 C 55.300781 -118.09375 59.332031 -124.34375 65.78125 -128.78125 C 72.226562 -133.21875 80.453125 -135.4375 90.453125 -135.4375 C 104.796875 -135.4375 116 -131 124.0625 -122.125 C 132.125 -113.257812 136.15625 -101.007812 136.15625 -85.375 L 136.15625 -75.703125 L 104.46875 -75.703125 L 104.46875 -82.703125 C 104.46875 -91.253906 102.128906 -97.90625 97.453125 -102.65625 C 92.785156 -107.414062 86.335938 -109.796875 78.109375 -109.796875 C 70.367188 -109.796875 64.28125 -107.375 59.84375 -102.53125 C 55.414062 -97.695312 53.203125 -91.085938 53.203125 -82.703125 L 53.203125 0 L 22.96875 0 Z M 22.96875 -133.015625 "/></g></g></g><g fill="#e89926" fill-opacity="1"><g transform="translate(290.836394, 236.555793)"><g><path d="M 20.078125 -27.5625 L 67.71875 -27.5625 L 67.71875 -105.6875 L 26.125 -105.6875 L 26.125 -133.015625 L 96.734375 -133.015625 L 96.734375 -27.5625 L 135.1875 -27.5625 L 135.1875 0 L 20.078125 0 Z M 59.015625 -169.046875 C 59.015625 -173.722656 60.582031 -177.550781 63.71875 -180.53125 C 66.863281 -183.519531 71.019531 -185.015625 76.1875 -185.015625 L 82.46875 -185.015625 C 87.625 -185.015625 91.773438 -183.519531 94.921875 -180.53125 C 98.066406 -177.550781 99.640625 -173.722656 99.640625 -169.046875 C 99.640625 -164.210938 98.023438 -160.34375 94.796875 -157.4375 C 91.578125 -154.539062 87.390625 -153.09375 82.234375 -153.09375 L 76.1875 -153.09375 C 71.019531 -153.09375 66.863281 -154.539062 63.71875 -157.4375 C 60.582031 -160.34375 59.015625 -164.210938 59.015625 -169.046875 Z M 59.015625 -169.046875 "/></g></g></g><g fill="#e89926" fill-opacity="1"><g transform="translate(435.938399, 236.555793)"><g><path d="M 14.75 -83.4375 C 14.75 -91.5 15.835938 -98.710938 18.015625 -105.078125 C 20.191406 -111.453125 23.296875 -116.894531 27.328125 -121.40625 C 31.359375 -125.914062 36.191406 -129.378906 41.828125 -131.796875 C 47.472656 -134.222656 53.679688 -135.4375 60.453125 -135.4375 C 70.128906 -135.4375 78.109375 -133.175781 84.390625 -128.65625 C 90.679688 -124.144531 94.554688 -117.9375 96.015625 -110.03125 L 98.4375 -110.03125 C 98.269531 -112.78125 98.109375 -115.523438 97.953125 -118.265625 C 97.628906 -120.679688 97.425781 -123.21875 97.34375 -125.875 C 97.257812 -128.539062 97.21875 -130.921875 97.21875 -133.015625 L 97.21875 -176.546875 L 127.453125 -176.546875 L 127.453125 0 L 98.4375 0 L 98.4375 -23.21875 L 96.015625 -23.21875 C 94.554688 -15.15625 90.679688 -8.863281 84.390625 -4.34375 C 78.109375 0.164062 70.128906 2.421875 60.453125 2.421875 C 53.679688 2.421875 47.472656 1.210938 41.828125 -1.203125 C 36.191406 -3.628906 31.359375 -7.140625 27.328125 -11.734375 C 23.296875 -16.328125 20.191406 -21.890625 18.015625 -28.421875 C 15.835938 -34.953125 14.75 -42.242188 14.75 -50.296875 Z M 71.34375 -23.9375 C 79.238281 -23.9375 85.523438 -26.351562 90.203125 -31.1875 C 94.878906 -36.03125 97.21875 -42.398438 97.21875 -50.296875 L 97.21875 -82.703125 C 97.21875 -90.765625 94.835938 -97.210938 90.078125 -102.046875 C 85.328125 -106.890625 79.082031 -109.3125 71.34375 -109.3125 C 63.125 -109.3125 56.675781 -106.929688 52 -102.171875 C 47.320312 -97.421875 44.984375 -90.929688 44.984375 -82.703125 L 44.984375 -51.03125 C 44.984375 -42.800781 47.320312 -36.226562 52 -31.3125 C 56.675781 -26.394531 63.125 -23.9375 71.34375 -23.9375 Z M 71.34375 -23.9375 "/></g></g></g><g fill="#ffffff" fill-opacity="1"><g transform="translate(581.050148, 236.555793)"><g><path d="M 74.484375 2.421875 C 66.265625 2.421875 58.890625 1.210938 52.359375 -1.203125 C 45.828125 -3.628906 40.265625 -7.097656 35.671875 -11.609375 C 31.078125 -16.117188 27.53125 -21.597656 25.03125 -28.046875 C 22.53125 -34.503906 21.28125 -41.679688 21.28125 -49.578125 L 21.28125 -83.4375 C 21.28125 -91.332031 22.53125 -98.503906 25.03125 -104.953125 C 27.53125 -111.410156 31.078125 -116.894531 35.671875 -121.40625 C 40.265625 -125.914062 45.828125 -129.378906 52.359375 -131.796875 C 58.890625 -134.222656 66.265625 -135.4375 74.484375 -135.4375 C 89.160156 -135.4375 101.210938 -131.441406 110.640625 -123.453125 C 120.078125 -115.472656 125.757812 -104.550781 127.6875 -90.6875 L 105.921875 -90.6875 C 104.796875 -98.425781 101.367188 -104.59375 95.640625 -109.1875 C 89.921875 -113.78125 82.867188 -116.078125 74.484375 -116.078125 C 64.816406 -116.078125 57.160156 -113.175781 51.515625 -107.375 C 45.867188 -101.570312 43.046875 -93.59375 43.046875 -83.4375 L 43.046875 -49.578125 C 43.046875 -39.421875 45.828125 -31.4375 51.390625 -25.625 C 56.953125 -19.820312 64.648438 -16.921875 74.484375 -16.921875 C 82.867188 -16.921875 89.921875 -19.21875 95.640625 -23.8125 C 101.367188 -28.414062 104.796875 -34.585938 105.921875 -42.328125 L 127.6875 -42.328125 C 125.59375 -28.296875 119.828125 -17.328125 110.390625 -9.421875 C 100.960938 -1.523438 88.992188 2.421875 74.484375 2.421875 Z M 74.484375 2.421875 "/></g></g></g><g fill="#ffffff" fill-opacity="1"><g transform="translate(726.152168, 236.555793)"><g><path d="M 14.515625 -133.015625 L 53.203125 -133.015625 L 53.203125 -174.125 L 74.96875 -174.125 L 74.96875 -133.015625 L 126.96875 -133.015625 L 126.96875 -113.1875 L 74.96875 -113.1875 L 74.96875 -34.34375 C 74.96875 -29.820312 76.378906 -26.269531 79.203125 -23.6875 C 82.023438 -21.113281 85.851562 -19.828125 90.6875 -19.828125 L 124.546875 -19.828125 L 124.546875 0 L 90.6875 0 C 79.238281 0 70.128906 -3.140625 63.359375 -9.421875 C 56.585938 -15.710938 53.203125 -24.019531 53.203125 -34.34375 L 53.203125 -113.1875 L 14.515625 -113.1875 Z M 14.515625 -133.015625 "/></g></g></g><g fill="#ffffff" fill-opacity="1"><g transform="translate(871.254189, 236.555793)"><g><path d="M 75.453125 -176.546875 L 75.453125 -38.6875 C 75.453125 -32.726562 77.0625 -28.09375 80.28125 -24.78125 C 83.507812 -21.476562 87.945312 -19.828125 93.59375 -19.828125 L 133.015625 -19.828125 L 133.015625 0 L 93.59375 0 C 81.175781 0 71.421875 -3.425781 64.328125 -10.28125 C 57.234375 -17.132812 53.6875 -26.601562 53.6875 -38.6875 L 53.6875 -156.71875 L 9.671875 -156.71875 L 9.671875 -176.546875 Z M 75.453125 -176.546875 "/></g></g></g></g></g></svg>